Patient4_TMGait_0pt7_02_right_14_GRF.mot
version=1
nRows=58
nColumns=19
inDegrees=no
endheader
time	F1x	F1y	F1z	M1x	M1y	M1z	F2x	F2y	F2z	M2x	M2y	M2z	EC1x	EC1y	EC1z	EC2x	EC2y	EC2z
15.14	-62.9437	780.0506	83.6922	-255.843	-99.6729	806.7815	-3.2655	-8.4313	-18.3735	2.9432	12.465	-10.374	-0.0592	0.0182	-0.0073	-0.0462	0.0165	0.9585
15.1514	-50.4703	768.3894	82.0322	-251.6621	-94.765	793.5777	-2.4036	-4.7912	-12.3851	2.3393	8.457	-6.0655	-0.0592	0.0182	-0.0073	-0.0462	0.0165	0.9585
15.1629	-39.3713	755.5196	80.2852	-246.9742	-89.927	778.3273	-1.6307	-1.675	-7.3497	1.8414	5.0974	-2.3959	-0.0592	0.0182	-0.0073	-0.0462	0.0165	0.9585
15.1743	-30.1944	742.3003	78.4758	-242.1088	-85.3323	761.91	-1.0095	0.74271	-3.535	1.4797	2.557	0.43557	-0.0592	0.0182	-0.0073	-0.0462	0.0165	0.9585
15.1857	-23.0038	729.541	76.6219	-237.3866	-81.053	745.2698	-0.57297	2.4589	-0.92403	1.2479	0.82853	2.441	-0.0592	0.0182	-0.0073	-0.0462	0.0165	0.9585
15.1971	-17.5315	717.915	74.6695	-233.083	-77.0155	729.1594	-0.29634	3.5649	0.67426	1.1216	-0.21765	3.7317	-0.0592	0.0182	-0.0073	-0.0462	0.0165	0.9585
15.2086	-13.3724	707.9272	72.6176	-229.4013	-73.1588	714.1866	-0.15873	4.1775	1.4891	1.0638	-0.72919	4.4616	-0.0592	0.0182	-0.0073	-0.0462	0.0165	0.9585
15.22	-10.0326	699.9118	70.4503	-226.476	-69.3716	700.7257	-0.12608	4.3965	1.7666	1.0325	-0.87227	4.751	-0.0592	0.0182	-0.0073	-0.0462	0.0165	0.9585
15.2314	-7.0776	694.0333	68.2287	-224.3676	-65.6211	688.9837	-0.17013	4.2914	1.695	0.98278	-0.7664	4.6775	-0.0592	0.0182	-0.0073	-0.0462	0.0165	0.9585
15.2429	-4.0832	690.3073	66.0097	-223.0768	-61.8623	678.9907	-0.26615	3.8704	1.4291	0.86501	-0.51204	4.2459	-0.0592	0.0182	-0.0073	-0.0462	0.0165	0.9585
15.2543	-0.73301	688.6901	63.8681	-222.5681	-58.0892	670.7109	-0.38618	3.1144	1.0755	0.63235	-0.18252	3.4332	-0.0592	0.0182	-0.0073	-0.0462	0.0165	0.9585
15.2657	3.2122	689.0949	61.9043	-222.7845	-54.331	664.0638	-0.50677	1.9698	0.70122	0.24186	0.1692	2.1766	-0.0592	0.0182	-0.0073	-0.0462	0.0165	0.9585
15.2771	7.8981	691.481	60.2123	-223.6754	-50.6335	659.0571	-0.6	0.38887	0.35446	-0.33655	0.49487	0.41511	-0.0592	0.0182	-0.0073	-0.0462	0.0165	0.9585
15.2886	13.3292	695.7842	58.9564	-225.1775	-47.1404	655.6857	-0.63138	-1.63	0.070401	-1.105	0.7452	-1.8625	-0.0592	0.0182	-0.0073	-0.0462	0.0165	0.9585
15.3	19.4188	701.9469	58.2541	-227.2291	-43.9747	653.9817	-0.56116	-3.9765	-0.11062	-2.0149	0.85305	-4.5352	-0.0592	0.0182	-0.0073	-0.0462	0.0165	0.9585
15.3114	25.9837	709.8426	58.2512	-229.7542	-41.3096	653.9104	-0.33707	-6.3519	-0.12386	-2.9383	0.72055	-7.2606	-0.0592	0.0182	-0.0073	-0.0462	0.0165	0.9585
15.3229	32.7897	719.2616	58.9822	-232.6708	-39.2302	655.3369	0.098275	-8.1868	0.11905	-3.638	0.21738	-9.3793	-0.0592	0.0182	-0.0073	-0.0462	0.0165	0.9585
15.3343	39.6252	729.8813	60.4281	-235.8746	-37.7715	658.0253	0.80632	-8.5684	0.7387	-3.7353	-0.82143	-9.8478	-0.0592	0.0182	-0.0073	-0.0462	0.0165	0.9585
15.3457	46.2545	741.1352	62.4688	-239.1955	-36.8891	661.5228	1.8317	-6.1525	1.8654	-2.6789	-2.5637	-7.128	-0.0592	0.0182	-0.0073	-0.0462	0.0165	0.9585
15.3571	52.4329	752.1572	64.9317	-242.3692	-36.5023	665.1269	3.1919	0.81682	3.6202	0.24804	-5.1469	0.80797	-0.0592	0.0182	-0.0073	-0.0462	0.0165	0.9585
15.3686	57.9177	761.7699	67.5959	-245.0343	-36.4993	667.8953	4.8232	14.415	6.0645	5.8854	-8.6	16.3591	-0.0592	0.0182	-0.0073	-0.0462	0.0165	0.9585
15.38	62.4566	768.5266	70.1652	-246.7474	-36.717	668.654	6.5366	36.7629	9.1474	15.0842	-12.7637	41.9679	-0.0592	0.0182	-0.0073	-0.0462	0.0165	0.9585
15.3914	65.8386	770.8414	72.3024	-247.0249	-36.9609	666.1197	7.9458	69.5045	12.597	28.4917	-17.144	79.5433	-0.0592	0.0182	-0.0073	-0.0462	0.0165	0.9585
15.4029	67.9446	767.1457	73.6072	-245.3982	-36.9608	659.0181	8.3939	113.0346	15.8232	46.232	-20.7744	129.5492	-0.0592	0.0182	-0.0073	-0.0462	0.0165	0.9585
15.4143	68.7472	756.1141	73.6901	-241.4809	-36.4312	646.2541	6.7545	165.4723	17.9254	67.4858	-22.1694	189.8276	-0.0592	0.0182	-0.0073	-0.0462	0.0165	0.9585
15.4257	68.3364	736.7966	72.2077	-235.0084	-35.0913	627.0346	1.9764	221.652	17.7698	90.0967	-19.6318	254.4248	-0.0592	0.0182	-0.0073	-0.0462	0.0165	0.9585
15.4371	66.8725	708.7626	68.9897	-225.877	-32.7786	600.9656	-5.415	273.8071	14.0846	110.8951	-12.0723	314.316	-0.0592	0.0182	-0.0073	-0.0462	0.0165	0.9585
15.4486	64.5684	672.3022	64.1086	-214.1952	-29.504	568.249	-13.4887	315.9734	7.1135	127.5078	-0.65229	362.4095	-0.0592	0.0182	-0.0073	-0.0462	0.0165	0.9585
15.46	61.6266	628.4634	57.8843	-200.2841	-25.4616	529.7363	-20.9256	347.3152	-1.6364	139.6501	12.3693	397.5315	-0.0592	0.0182	-0.0073	-0.0462	0.0165	0.9585
15.4714	58.2502	578.7531	50.8608	-184.5875	-21.0126	486.6555	-27.0155	370.9436	-11.1142	148.6322	25.5193	423.0957	-0.0592	0.0182	-0.0073	-0.0462	0.0165	0.9585
15.4829	54.6348	524.9534	43.5516	-167.6267	-16.4734	440.4727	-31.5868	391.3588	-19.8663	156.3553	37.1436	444.2656	-0.0592	0.0182	-0.0073	-0.0462	0.0165	0.9585
15.4943	50.8612	468.878	36.3384	-149.9359	-12.0877	392.6732	-34.4931	412.3836	-27.0282	164.4276	46.2575	465.4306	-0.0592	0.0182	-0.0073	-0.0462	0.0165	0.9585
15.5057	46.8745	412.2249	29.4784	-132.021	-8.0503	344.6426	-35.8348	436.1712	-32.0523	173.7587	52.3251	489.1031	-0.0592	0.0182	-0.0073	-0.0462	0.0165	0.9585
15.5171	42.5262	356.5244	23.1616	-114.3442	-4.5452	297.6473	-35.681	463.1576	-34.9902	184.5249	55.472	515.7674	-0.0592	0.0182	-0.0073	-0.0462	0.0165	0.9585
15.5286	37.6398	303.0915	17.5692	-97.3124	-1.7655	252.7701	-34.3462	492.7466	-36.4526	196.4282	56.4888	544.8595	-0.0592	0.0182	-0.0073	-0.0462	0.0165	0.9585
15.54	32.1214	253.1299	12.8148	-81.3111	0.17437	210.9887	-32.1236	523.7018	-37.2235	208.9067	56.3672	575.0815	-0.0592	0.0182	-0.0073	-0.0462	0.0165	0.9585
15.5514	26.1109	207.5731	9.0122	-66.6545	1.2214	173.0352	-29.4897	554.8365	-38.2542	221.3907	56.2991	605.2728	-0.0592	0.0182	-0.0073	-0.0462	0.0165	0.9585
15.5629	19.9106	167.0829	6.1585	-53.5787	1.4735	139.3969	-26.8131	585.1696	-40.1044	233.4323	57.0486	634.3922	-0.0592	0.0182	-0.0073	-0.0462	0.0165	0.9585
15.5743	13.9356	131.8886	4.1919	-42.1867	1.1031	110.1984	-24.5317	614.1621	-43.1642	244.7723	59.178	661.9279	-0.0592	0.0182	-0.0073	-0.0462	0.0165	0.9585
15.5857	8.5272	101.8435	2.8954	-32.4618	0.39021	85.2839	-22.8316	641.6232	-47.2565	255.3442	62.5817	687.6511	-0.0592	0.0182	-0.0073	-0.0462	0.0165	0.9585
15.5971	3.9373	76.5678	2.062	-24.301	-0.42753	64.3108	-21.854	667.7441	-51.9779	265.2525	66.8721	711.8075	-0.0592	0.0182	-0.0073	-0.0462	0.0165	0.9585
15.6086	0.29216	55.6051	1.5132	-17.5623	-1.1692	46.9085	-21.4576	692.8062	-56.7182	274.6613	71.3672	734.6731	-0.0592	0.0182	-0.0073	-0.0462	0.0165	0.9585
15.62	-2.333	38.5673	1.1319	-12.1144	-1.7166	32.7603	-21.5618	716.9044	-60.9949	283.6434	75.5228	756.3822	-0.0592	0.0182	-0.0073	-0.0462	0.0165	0.9585
15.6314	-3.9398	25.1316	0.8619	-7.8433	-2.0235	21.6222	-21.9614	739.6183	-64.5851	292.0613	79.0255	776.4735	-0.0592	0.0182	-0.0073	-0.0462	0.0165	0.9585
15.6429	-4.5159	14.9789	0.64448	-4.639	-2.0385	13.2195	-22.547	760.2094	-67.4744	299.6211	81.8083	794.2288	-0.0592	0.0182	-0.0073	-0.0462	0.0165	0.9585
15.6543	-4.2535	7.766	0.48024	-2.3821	-1.827	7.2623	-23.1701	777.6685	-69.7691	305.93	83.9267	808.6256	-0.0592	0.0182	-0.0073	-0.0462	0.0165	0.9585
15.6657	-3.5514	3.1148	0.34253	-0.94508	-1.4919	3.405	-23.7533	791.1571	-71.49	310.6557	85.3792	818.8631	-0.0592	0.0182	-0.0073	-0.0462	0.0165	0.9585
15.6771	-2.711	0.48541	0.2628	-0.14902	-1.1635	1.2272	-24.1268	800.0855	-72.6675	313.581	86.1495	824.3494	-0.0592	0.0182	-0.0073	-0.0462	0.0165	0.9585
15.6886	-1.9072	-0.69299	0.21861	0.18927	-0.87973	0.24436	-24.1434	804.4084	-73.2503	314.705	86.1454	825.062	-0.0592	0.0182	-0.0073	-0.0462	0.0165	0.9585
15.7	-1.2432	-0.93207	0.20474	0.23326	-0.6698	0.043692	-23.6184	804.4769	-73.2661	314.1845	85.3446	821.353	-0.0592	0.0182	-0.0073	-0.0462	0.0165	0.9585
15.7114	-0.73142	-0.62061	0.21742	0.1058	-0.53381	0.29635	-22.5034	800.8474	-72.7715	312.2487	83.7937	813.8133	-0.0592	0.0182	-0.0073	-0.0462	0.0165	0.9585
15.7229	-0.3943	-0.04644	0.22781	-0.10155	-0.44694	0.77044	-20.8241	794.1157	-71.8923	309.137	81.6353	803.0721	-0.0592	0.0182	-0.0073	-0.0462	0.0165	0.9585
15.7343	-0.17798	0.59835	0.2457	-0.32696	-0.40322	1.3259	-18.7044	784.913	-70.7268	305.0996	79.0189	789.7996	-0.0592	0.0182	-0.0073	-0.0462	0.0165	0.9585
15.7457	-0.065994	1.2218	0.2459	-0.54208	-0.37221	1.8954	-16.2612	773.9664	-69.3514	300.422	76.0766	774.7453	-0.0592	0.0182	-0.0073	-0.0462	0.0165	0.9585
15.7571	-0.02599	1.7538	0.25301	-0.72727	-0.3683	2.4044	-13.5992	762.0689	-67.8529	295.4109	72.9433	758.7311	-0.0592	0.0182	-0.0073	-0.0462	0.0165	0.9585
15.7686	-0.043338	2.1944	0.25498	-0.88128	-0.377	2.8588	-10.797	749.9863	-66.3139	290.3616	69.7392	742.5225	-0.0592	0.0182	-0.0073	-0.0462	0.0165	0.9585
15.78	-0.10325	2.5159	0.26454	-0.99373	-0.41071	3.2046	-7.907	738.4192	-64.8248	285.5413	66.58	726.8084	-0.0592	0.0182	-0.0073	-0.0462	0.0165	0.9585
15.7914	-0.2102	2.7058	0.28291	-1.0555	-0.47364	3.4174	-4.9607	727.9699	-63.4286	281.1809	63.5303	712.1738	-0.0592	0.0182	-0.0073	-0.0462	0.0165	0.9585
